<?xml version="1.0" encoding="UTF-8"?>
<svg width="512" height="512" viewBox="0 0 512 512" xmlns="http://www.w3.org/2000/svg">
    <rect width="512" height="512" fill="#4CAF50" rx="100"/>
    <path d="M256 80c97.2 0 176 78.8 176 176s-78.8 176-176 176S80 353.2 80 256 158.8 80 256 80m0-32C141.6 48 48 141.6 48 256s93.6 208 208 208 208-93.6 208-208S370.4 48 256 48z" fill="white"/>
    <path d="M256 128c70.7 0 128 57.3 128 128s-57.3 128-128 128-128-57.3-128-128 57.3-128 128-128m0-32c-88.4 0-160 71.6-160 160s71.6 160 160 160 160-71.6 160-160-71.6-160-160-160z" fill="white"/>
    <text x="256" y="280" font-family="Arial" font-size="120" fill="white" text-anchor="middle">₽</text>
</svg>
